<?xml version="1.0" encoding="UTF-8"?> <svg xmlns="http://www.w3.org/2000/svg" width="230" height="45" viewBox="0 0 230 45" fill="none"> <path d="M76.29 23.4404C76.29 26.3804 74.37 28.0904 71.19 28.0904C69.12 28.0904 67.98 27.0404 67.98 24.9704V16.0004H62.22V25.9304C62.22 30.3704 64.77 32.8304 69.39 32.8304C72.39 32.8304 74.94 31.4804 76.5 29.2604L76.92 32.5004H82.08V16.0004H76.29V23.4404Z" fill="white"></path> <path d="M92.6229 32.5004V10.0004H86.8629V32.5004H92.6229Z" fill="white"></path> <path d="M98.4598 26.1104C98.4598 30.9704 100.92 32.8304 106.2 32.8304C107.91 32.8304 110.01 32.6504 111.54 32.3204L111.72 27.9404C110.46 28.2104 108.84 28.3604 107.7 28.3604C105.12 28.3604 104.25 27.7904 104.25 25.4204V20.2904H111.48V16.0004H104.25V11.8004H99.7798C99.4498 15.6104 99.1798 16.0004 96.9298 16.0004H95.3098V20.2904H98.4598V26.1104Z" fill="white"></path> <path d="M115.105 14.2604H120.865V9.67041H115.105V14.2604ZM115.105 32.5004H120.865V16.0004H115.105V32.5004Z" fill="white"></path> <path d="M125.652 32.5004H131.412V25.0604C131.412 22.1504 133.122 20.4104 135.912 20.4104C138.102 20.4104 139.212 21.5204 139.212 23.6804V32.5004H144.972V25.0604C144.972 22.1504 146.682 20.4104 149.472 20.4104C151.662 20.4104 152.772 21.5204 152.772 23.6804V32.5004H158.562V22.6004C158.562 18.2204 155.982 15.6704 151.572 15.6704C148.512 15.6704 145.962 17.0804 144.372 19.3304C143.412 16.9904 141.192 15.6704 138.042 15.6704C135.222 15.6704 132.762 17.0204 131.232 19.2404L130.842 16.0004H125.652V32.5004Z" fill="white"></path> <path d="M173.172 32.8304C179.562 32.8304 182.622 31.0904 183.762 27.7304L178.182 26.7404C177.702 28.0304 176.172 28.6304 173.202 28.6304C170.022 28.6304 168.252 27.6104 167.742 25.5704H183.672C183.822 24.9704 183.882 24.4304 183.882 23.7104C183.882 18.6704 179.562 15.6704 173.082 15.6704C166.152 15.6704 162.012 19.1204 162.012 24.2504C162.012 29.5904 166.242 32.8304 173.172 32.8304ZM173.112 19.7504C175.932 19.7504 177.642 20.5304 178.152 22.4204H167.862C168.462 20.6204 170.142 19.7504 173.112 19.7504Z" fill="white"></path> <path d="M187.41 32.5004H193.17V25.0604C193.17 22.1204 195.15 20.3804 198.45 20.3804C200.85 20.3804 202.11 21.5804 202.11 23.7404V32.5004H207.87V22.5104C207.87 18.1304 205.23 15.6704 200.49 15.6704C197.31 15.6704 194.61 17.0204 192.96 19.3004L192.54 16.0004H187.41V32.5004Z" fill="white"></path> <path d="M213.538 26.1104C213.538 30.9704 215.998 32.8304 221.278 32.8304C222.988 32.8304 225.088 32.6504 226.618 32.3204L226.798 27.9404C225.538 28.2104 223.918 28.3604 222.778 28.3604C220.198 28.3604 219.328 27.7904 219.328 25.4204V20.2904H226.558V16.0004H219.328V11.8004H214.858C214.528 15.6104 214.258 16.0004 212.008 16.0004H210.388V20.2904H213.538V26.1104Z" fill="white"></path> <path d="M0 5C0 2.23858 2.23858 0 5 0H40C42.7614 0 45 2.23858 45 5V40C45 42.7614 42.7614 45 40 45H5C2.23858 45 0 42.7614 0 40V5Z" fill="#8383FF"></path> <path fill-rule="evenodd" clip-rule="evenodd" d="M11.5072 19.0406L17.7572 8.21533L24.2524 11.9653L18.0024 22.7906C16.9669 24.5842 17.5814 26.8777 19.375 27.9132C21.1686 28.9488 23.4621 28.3342 24.4976 26.5406L30.7476 15.7153L37.2428 19.4653L30.9928 30.2906C27.8862 35.6714 21.0058 37.515 15.625 34.4084C10.2442 31.3018 8.40062 24.4214 11.5072 19.0406Z" fill="white"></path> </svg> 